<svg width="45" height="45" viewBox="0 0 45 45" fill="none" xmlns="http://www.w3.org/2000/svg">
<path d="M22.4987 0C10.0924 0 0 10.0951 0 22.5013C0 34.9076 10.0924 45 22.4987 45C34.9049 45 45 34.9076 45 22.5013C45 10.0951 34.9049 0 22.4987 0ZM22.4987 1.36775C34.0289 1.36775 43.6349 10.903 43.6349 22.5013C43.6349 33.2618 35.1162 42.4552 24.5556 43.5258L24.5157 27.1847L28.5764 27.2246L29.9707 23.124H24.5157V19.0234C24.5157 17.661 25.8609 16.3571 27.2219 16.3571H28.5737L28.6163 12.2565L27.2219 12.2139C24.5979 12.2139 22.6099 13.2176 21.4396 14.388C20.2693 15.5583 19.0607 17.7106 19.0607 20.4178C19.0607 22.0595 19.0208 23.124 19.0208 23.124H14.9308V27.2672L19.0607 27.2246V43.3209C9.07797 41.6333 1.36509 32.7934 1.36509 22.5013C1.36509 10.903 10.899 1.36775 22.4987 1.36775Z" fill="black"/>
</svg>
