<svg xmlns="http://www.w3.org/2000/svg" xmlns:xlink="http://www.w3.org/1999/xlink" width="300" zoomAndPan="magnify" viewBox="0 0 224.87999 225" height="300" preserveAspectRatio="xMidYMid meet" version="1.0"><defs><clipPath id="4e515898d4"><path d="M 3.167969 35.289062 L 222 35.289062 L 222 177.714844 L 3.167969 177.714844 Z M 3.167969 35.289062 " clip-rule="nonzero"/></clipPath><clipPath id="be0b07e51f"><path d="M 18 35.289062 L 178 35.289062 L 178 107 L 18 107 Z M 18 35.289062 " clip-rule="nonzero"/></clipPath><clipPath id="7f89f0b09d"><path d="M 3.167969 70 L 178 70 L 178 152 L 3.167969 152 Z M 3.167969 70 " clip-rule="nonzero"/></clipPath></defs><g clip-path="url(#4e515898d4)"><path fill="#c9baf0" d="M 19.035156 59.019531 C 17.804688 57.746094 17.867188 55.691406 19.195312 54.519531 C 31.847656 43.316406 48.257812 36.261719 66.296875 35.503906 C 68.070312 35.429688 69.542969 36.863281 69.542969 38.636719 L 69.542969 103.648438 C 69.542969 106.464844 66.117188 107.847656 64.160156 105.820312 Z M 176.574219 65.261719 L 165.414062 65.261719 C 164.671875 65.261719 164.070312 65.863281 164.070312 66.605469 L 164.070312 77.765625 C 164.070312 78.507812 164.671875 79.109375 165.414062 79.109375 L 176.574219 79.109375 C 177.316406 79.109375 177.917969 78.507812 177.917969 77.765625 L 177.917969 66.605469 C 177.917969 65.863281 177.316406 65.261719 176.574219 65.261719 Z M 63.746094 112.367188 L 24.671875 71.84375 C 23.4375 70.5625 21.367188 70.554688 20.152344 71.851562 C 9.617188 83.113281 3.167969 98.25 3.167969 114.886719 C 3.167969 128.167969 7.273438 140.488281 14.289062 150.648438 C 15.300781 152.109375 17.34375 152.402344 18.75 151.320312 L 63.398438 117.019531 C 64.878906 115.882812 65.042969 113.710938 63.746094 112.367188 Z M 176.574219 111.230469 L 165.414062 111.230469 C 164.671875 111.230469 164.070312 111.832031 164.070312 112.574219 L 164.070312 123.730469 C 164.070312 124.472656 164.671875 125.074219 165.414062 125.074219 L 176.574219 125.074219 C 177.316406 125.074219 177.917969 124.472656 177.917969 123.730469 L 177.917969 112.574219 C 177.917969 111.832031 177.316406 111.230469 176.574219 111.230469 Z M 78.019531 46.355469 C 76.246094 46.269531 74.769531 47.710938 74.769531 49.484375 L 74.769531 108.273438 C 74.769531 110 76.171875 111.402344 77.898438 111.402344 L 136.6875 111.402344 C 138.464844 111.402344 139.902344 109.925781 139.816406 108.152344 C 138.175781 74.765625 111.40625 47.996094 78.019531 46.355469 Z M 176.574219 134.210938 L 165.414062 134.210938 C 164.671875 134.210938 164.070312 134.8125 164.070312 135.554688 L 164.070312 146.714844 C 164.070312 147.457031 164.671875 148.058594 165.414062 148.058594 L 176.574219 148.058594 C 177.316406 148.058594 177.917969 147.457031 177.917969 146.714844 L 177.917969 135.554688 C 177.917969 134.8125 177.316406 134.210938 176.574219 134.210938 Z M 128.988281 117.078125 L 72.527344 117.078125 C 71.835938 117.078125 71.167969 117.304688 70.621094 117.726562 L 25.84375 152.121094 C 24.433594 153.207031 24.191406 155.265625 25.351562 156.617188 C 36.492188 169.59375 53.023438 177.816406 71.464844 177.816406 C 103.917969 177.816406 130.421875 152.367188 132.117188 120.34375 C 132.214844 118.5625 130.769531 117.078125 128.988281 117.078125 Z M 185.199219 73.613281 L 220.273438 73.613281 C 221.0625 73.613281 221.699219 72.972656 221.699219 72.183594 C 221.699219 71.398438 221.0625 70.757812 220.273438 70.757812 L 185.199219 70.757812 C 184.410156 70.757812 183.769531 71.398438 183.769531 72.183594 C 183.769531 72.972656 184.410156 73.613281 185.199219 73.613281 Z M 176.574219 88.246094 L 165.414062 88.246094 C 164.671875 88.246094 164.070312 88.847656 164.070312 89.589844 L 164.070312 100.746094 C 164.070312 101.488281 164.671875 102.089844 165.414062 102.089844 L 176.574219 102.089844 C 177.316406 102.089844 177.917969 101.488281 177.917969 100.746094 L 177.917969 89.589844 C 177.917969 88.847656 177.316406 88.246094 176.574219 88.246094 Z M 220.273438 93.742188 L 185.199219 93.742188 C 184.410156 93.742188 183.769531 94.378906 183.769531 95.167969 C 183.769531 95.957031 184.410156 96.597656 185.199219 96.597656 L 220.273438 96.597656 C 221.0625 96.597656 221.699219 95.957031 221.699219 95.167969 C 221.699219 94.378906 221.0625 93.742188 220.273438 93.742188 Z M 220.273438 116.722656 L 185.199219 116.722656 C 184.410156 116.722656 183.769531 117.363281 183.769531 118.152344 C 183.769531 118.941406 184.410156 119.578125 185.199219 119.578125 L 220.273438 119.578125 C 221.0625 119.578125 221.699219 118.941406 221.699219 118.152344 C 221.699219 117.363281 221.0625 116.722656 220.273438 116.722656 Z M 220.273438 139.707031 L 185.199219 139.707031 C 184.410156 139.707031 183.769531 140.347656 183.769531 141.136719 C 183.769531 141.921875 184.410156 142.5625 185.199219 142.5625 L 220.273438 142.5625 C 221.0625 142.5625 221.699219 141.921875 221.699219 141.136719 C 221.699219 140.347656 221.0625 139.707031 220.273438 139.707031 Z M 220.273438 139.707031 " fill-opacity="1" fill-rule="nonzero"/></g><g clip-path="url(#be0b07e51f)"><path fill="#f0f28d" d="M 69.542969 38.636719 L 69.542969 103.648438 C 69.542969 106.464844 66.117188 107.847656 64.160156 105.820312 L 19.035156 59.019531 C 17.804688 57.746094 17.867188 55.691406 19.195312 54.519531 C 31.847656 43.316406 48.257812 36.261719 66.296875 35.503906 C 68.070312 35.429688 69.542969 36.863281 69.542969 38.636719 Z M 176.574219 65.261719 L 165.414062 65.261719 C 164.671875 65.261719 164.070312 65.863281 164.070312 66.605469 L 164.070312 77.765625 C 164.070312 78.507812 164.671875 79.109375 165.414062 79.109375 L 176.574219 79.109375 C 177.316406 79.109375 177.917969 78.507812 177.917969 77.765625 L 177.917969 66.605469 C 177.917969 65.863281 177.316406 65.261719 176.574219 65.261719 Z M 176.574219 65.261719 " fill-opacity="1" fill-rule="nonzero"/></g><g clip-path="url(#7f89f0b09d)"><path fill="#f2a2dd" d="M 63.746094 112.367188 C 65.042969 113.710938 64.878906 115.882812 63.398438 117.019531 L 18.75 151.320312 C 17.34375 152.402344 15.300781 152.109375 14.289062 150.648438 C 7.273438 140.488281 3.167969 128.167969 3.167969 114.886719 C 3.167969 98.25 9.617188 83.113281 20.152344 71.851562 C 21.367188 70.554688 23.4375 70.5625 24.671875 71.84375 Z M 176.574219 111.230469 L 165.414062 111.230469 C 164.671875 111.230469 164.070312 111.832031 164.070312 112.574219 L 164.070312 123.730469 C 164.070312 124.472656 164.671875 125.074219 165.414062 125.074219 L 176.574219 125.074219 C 177.316406 125.074219 177.917969 124.472656 177.917969 123.730469 L 177.917969 112.574219 C 177.917969 111.832031 177.316406 111.230469 176.574219 111.230469 Z M 176.574219 111.230469 " fill-opacity="1" fill-rule="nonzero"/></g><path fill="#7bf0c4" d="M 139.816406 108.152344 C 139.902344 109.925781 138.464844 111.402344 136.6875 111.402344 L 77.898438 111.402344 C 76.171875 111.402344 74.769531 110 74.769531 108.273438 L 74.769531 49.484375 C 74.769531 47.710938 76.246094 46.269531 78.019531 46.355469 C 111.40625 47.996094 138.175781 74.765625 139.816406 108.152344 Z M 176.574219 134.210938 L 165.414062 134.210938 C 164.671875 134.210938 164.070312 134.8125 164.070312 135.554688 L 164.070312 146.714844 C 164.070312 147.457031 164.671875 148.058594 165.414062 148.058594 L 176.574219 148.058594 C 177.316406 148.058594 177.917969 147.457031 177.917969 146.714844 L 177.917969 135.554688 C 177.917969 134.8125 177.316406 134.210938 176.574219 134.210938 Z M 176.574219 134.210938 " fill-opacity="1" fill-rule="nonzero"/></svg>