<svg xmlns="http://www.w3.org/2000/svg" xmlns:xlink="http://www.w3.org/1999/xlink" width="40" zoomAndPan="magnify" viewBox="0 0 30 30.000001" height="40" preserveAspectRatio="xMidYMid meet" version="1.0"><path fill="#551945" d="M 5.566406 23.707031 C 0.484375 18.625 0.484375 10.398438 5.566406 5.3125 C 10.648438 0.230469 18.875 0.230469 23.957031 5.3125 C 29.042969 10.394531 29.039062 18.625 23.957031 23.707031 C 18.875 28.789062 10.648438 28.789062 5.566406 23.707031 Z M 14.761719 2.398438 C 8.082031 2.398438 2.648438 7.832031 2.648438 14.511719 C 2.648438 21.1875 8.082031 26.621094 14.761719 26.621094 C 21.441406 26.621094 26.875 21.1875 26.875 14.511719 C 26.875 7.832031 21.441406 2.398438 14.761719 2.398438 Z M 14.761719 2.398438 " fill-opacity="1" fill-rule="nonzero"/><path fill="#551945" d="M 19.054688 10.664062 C 18.234375 10.5 18.238281 9.332031 19.054688 9.15625 C 19.800781 9.003906 20.28125 9.929688 19.746094 10.453125 C 19.554688 10.644531 19.324219 10.714844 19.054688 10.664062 Z M 19.054688 10.664062 " fill-opacity="1" fill-rule="nonzero"/><path fill="#551945" d="M 19.054688 22.214844 L 10.46875 22.214844 C 10.019531 22.214844 9.582031 22.128906 9.164062 21.953125 C 8.746094 21.78125 8.378906 21.535156 8.058594 21.214844 C 7.738281 20.894531 7.492188 20.523438 7.316406 20.105469 C 7.144531 19.6875 7.054688 19.253906 7.054688 18.800781 L 7.054688 10.21875 C 7.054688 9.765625 7.144531 9.332031 7.316406 8.914062 C 7.492188 8.496094 7.738281 8.125 8.058594 7.804688 C 8.378906 7.484375 8.746094 7.238281 9.164062 7.066406 C 9.582031 6.890625 10.019531 6.804688 10.46875 6.804688 L 19.054688 6.804688 C 19.503906 6.804688 19.941406 6.890625 20.359375 7.066406 C 20.777344 7.238281 21.144531 7.484375 21.464844 7.804688 C 21.785156 8.125 22.035156 8.496094 22.207031 8.914062 C 22.378906 9.332031 22.46875 9.765625 22.46875 10.21875 L 22.46875 18.800781 C 22.46875 19.253906 22.378906 19.6875 22.207031 20.105469 C 22.035156 20.523438 21.785156 20.894531 21.464844 21.214844 C 21.144531 21.535156 20.777344 21.78125 20.359375 21.953125 C 19.941406 22.128906 19.503906 22.214844 19.054688 22.214844 Z M 10.46875 7.695312 C 10.136719 7.699219 9.816406 7.761719 9.507812 7.890625 C 9.195312 8.019531 8.925781 8.199219 8.6875 8.4375 C 8.453125 8.671875 8.269531 8.945312 8.140625 9.253906 C 8.011719 9.5625 7.949219 9.882812 7.949219 10.21875 L 7.949219 18.800781 C 7.949219 19.136719 8.011719 19.457031 8.140625 19.765625 C 8.269531 20.074219 8.453125 20.347656 8.6875 20.582031 C 8.925781 20.820312 9.195312 21.003906 9.507812 21.128906 C 9.816406 21.257812 10.136719 21.324219 10.46875 21.324219 L 19.054688 21.324219 C 19.386719 21.324219 19.707031 21.257812 20.019531 21.128906 C 20.328125 21.003906 20.597656 20.820312 20.835938 20.582031 C 21.070312 20.347656 21.253906 20.074219 21.382812 19.765625 C 21.511719 19.457031 21.574219 19.136719 21.574219 18.800781 L 21.574219 10.21875 C 21.574219 9.882812 21.511719 9.5625 21.382812 9.253906 C 21.253906 8.945312 21.070312 8.671875 20.835938 8.4375 C 20.597656 8.199219 20.328125 8.019531 20.019531 7.890625 C 19.707031 7.761719 19.386719 7.699219 19.054688 7.695312 Z M 10.46875 7.695312 " fill-opacity="1" fill-rule="nonzero"/><path fill="#551945" d="M 14.761719 18.632812 C 14.492188 18.632812 14.222656 18.605469 13.957031 18.550781 C 13.691406 18.5 13.433594 18.421875 13.183594 18.316406 C 12.933594 18.214844 12.695312 18.085938 12.472656 17.9375 C 12.246094 17.785156 12.039062 17.617188 11.847656 17.425781 C 11.65625 17.234375 11.484375 17.023438 11.335938 16.800781 C 11.183594 16.574219 11.058594 16.335938 10.953125 16.085938 C 10.851562 15.835938 10.773438 15.578125 10.71875 15.3125 C 10.667969 15.046875 10.640625 14.78125 10.640625 14.511719 C 10.640625 14.238281 10.667969 13.972656 10.71875 13.707031 C 10.773438 13.441406 10.851562 13.183594 10.953125 12.933594 C 11.058594 12.683594 11.183594 12.445312 11.335938 12.21875 C 11.484375 11.996094 11.65625 11.785156 11.847656 11.59375 C 12.039062 11.402344 12.246094 11.234375 12.472656 11.082031 C 12.695312 10.933594 12.933594 10.804688 13.183594 10.703125 C 13.433594 10.597656 13.691406 10.519531 13.957031 10.46875 C 14.222656 10.414062 14.492188 10.386719 14.761719 10.386719 C 15.03125 10.386719 15.300781 10.414062 15.566406 10.46875 C 15.832031 10.519531 16.089844 10.597656 16.339844 10.703125 C 16.589844 10.804688 16.828125 10.933594 17.050781 11.082031 C 17.277344 11.234375 17.484375 11.402344 17.675781 11.59375 C 17.867188 11.785156 18.039062 11.996094 18.1875 12.21875 C 18.339844 12.445312 18.464844 12.683594 18.570312 12.933594 C 18.671875 13.183594 18.75 13.441406 18.804688 13.707031 C 18.855469 13.972656 18.882812 14.238281 18.882812 14.511719 C 18.882812 14.78125 18.855469 15.046875 18.804688 15.3125 C 18.75 15.578125 18.671875 15.835938 18.566406 16.085938 C 18.464844 16.335938 18.335938 16.574219 18.1875 16.796875 C 18.035156 17.023438 17.867188 17.230469 17.675781 17.421875 C 17.484375 17.613281 17.273438 17.785156 17.050781 17.933594 C 16.824219 18.085938 16.589844 18.210938 16.339844 18.316406 C 16.089844 18.421875 15.832031 18.5 15.566406 18.550781 C 15.300781 18.605469 15.03125 18.632812 14.761719 18.632812 Z M 14.761719 11.28125 C 14.332031 11.28125 13.921875 11.363281 13.527344 11.527344 C 13.128906 11.691406 12.78125 11.925781 12.480469 12.226562 C 12.175781 12.53125 11.941406 12.878906 11.777344 13.273438 C 11.617188 13.671875 11.535156 14.082031 11.535156 14.511719 C 11.535156 14.9375 11.617188 15.351562 11.777344 15.746094 C 11.941406 16.140625 12.175781 16.488281 12.480469 16.792969 C 12.78125 17.09375 13.128906 17.328125 13.527344 17.492188 C 13.921875 17.65625 14.332031 17.738281 14.761719 17.738281 C 15.191406 17.738281 15.601562 17.65625 15.996094 17.492188 C 16.394531 17.328125 16.742188 17.09375 17.042969 16.792969 C 17.347656 16.488281 17.582031 16.140625 17.746094 15.746094 C 17.910156 15.351562 17.992188 14.9375 17.992188 14.511719 C 17.988281 14.082031 17.90625 13.671875 17.742188 13.273438 C 17.578125 12.878906 17.347656 12.53125 17.042969 12.226562 C 16.742188 11.925781 16.390625 11.691406 15.996094 11.527344 C 15.601562 11.363281 15.191406 11.28125 14.761719 11.28125 Z M 14.761719 11.28125 " fill-opacity="1" fill-rule="nonzero"/></svg>