<svg xmlns="http://www.w3.org/2000/svg" xmlns:xlink="http://www.w3.org/1999/xlink" width="40" zoomAndPan="magnify" viewBox="0 0 30 30.000001" height="40" preserveAspectRatio="xMidYMid meet" version="1.0"><defs><clipPath id="157c31d1ca"><path d="M 1.027344 0 L 29 0 L 29 28 L 1.027344 28 Z M 1.027344 0 " clip-rule="nonzero"/></clipPath></defs><path fill="#551945" d="M 21.144531 10.898438 C 21.144531 10.898438 21.355469 15.359375 17.953125 18.113281 C 12.882812 22.234375 7.40625 18.890625 7.40625 18.890625 C 7.40625 18.890625 8.738281 18.914062 9.914062 18.597656 C 11.09375 18.28125 11.929688 17.527344 11.929688 17.527344 C 11.929688 17.527344 10.644531 17.253906 9.984375 16.773438 C 9.316406 16.289062 9.066406 15.359375 9.066406 15.359375 C 9.066406 15.359375 9.503906 15.394531 9.785156 15.394531 C 10.066406 15.382812 10.410156 15.253906 10.410156 15.253906 C 10.410156 15.253906 9.492188 15.148438 8.632812 14.183594 C 7.960938 13.429688 8.007812 12.171875 8.007812 12.171875 C 8.007812 12.171875 8.410156 12.40625 8.632812 12.464844 C 8.84375 12.523438 9.257812 12.523438 9.257812 12.523438 C 9.257812 12.523438 8.457031 12.042969 8.089844 10.816406 C 7.738281 9.582031 8.421875 8.332031 8.421875 8.332031 C 8.421875 8.332031 9.597656 9.769531 11.375 10.699219 C 13.152344 11.628906 14.824219 11.59375 14.824219 11.59375 C 14.824219 11.59375 14.578125 10.851562 15 9.769531 C 15.421875 8.675781 16.390625 7.898438 17.847656 7.78125 C 19.308594 7.664062 20.238281 8.769531 20.238281 8.769531 C 20.238281 8.769531 20.683594 8.6875 21.203125 8.5 C 21.722656 8.308594 22.226562 8.074219 22.226562 8.074219 C 22.226562 8.074219 22.050781 8.628906 21.699219 9.0625 C 21.34375 9.5 20.945312 9.757812 20.945312 9.757812 C 20.945312 9.757812 21.402344 9.722656 21.863281 9.59375 C 22.320312 9.464844 22.582031 9.335938 22.582031 9.335938 C 22.074219 10.230469 21.144531 10.898438 21.144531 10.898438 Z M 21.144531 10.898438 " fill-opacity="1" fill-rule="nonzero"/><g clip-path="url(#157c31d1ca)"><path fill="#551945" d="M 15 27.945312 C 7.300781 27.945312 1.027344 21.679688 1.027344 13.972656 C 1.027344 6.261719 7.300781 0 15 0 C 22.699219 0 28.972656 6.273438 28.972656 13.972656 C 28.972656 21.667969 22.710938 27.945312 15 27.945312 Z M 15 0.765625 C 7.714844 0.765625 1.792969 6.6875 1.792969 13.972656 C 1.792969 21.257812 7.714844 27.179688 15 27.179688 C 22.285156 27.179688 28.207031 21.257812 28.207031 13.972656 C 28.207031 6.6875 22.285156 0.765625 15 0.765625 Z M 15 0.765625 " fill-opacity="1" fill-rule="nonzero"/></g></svg>