<svg width="42" height="42" viewBox="0 0 42 42" fill="none" xmlns="http://www.w3.org/2000/svg">
<path d="M7 0C3.14567 0 0 3.14567 0 7V35C0 38.8543 3.14567 42 7 42H35C38.8543 42 42 38.8543 42 35V7C42 3.14567 38.8543 0 35 0H7ZM7 2H35C37.7737 2 40 4.22633 40 7V35C40 37.7737 37.7737 40 35 40H7C4.22633 40 2 37.7737 2 35V7C2 4.22633 4.22633 2 7 2ZM9.08594 9L18.3086 22.1035L9 33H11.5L19.4375 23.707L25.9766 33H33.9141L23.7891 18.6133L32 9H29.5L22.6602 17.0098L17.0234 9H9.08594ZM12.9141 11H15.9785L30.0859 31H27.0215L12.9141 11Z" fill="black"/>
</svg>
