<svg width="82" height="82" viewBox="0 0 82 82" fill="none" xmlns="http://www.w3.org/2000/svg">
<mask id="mask0_9_2058" style="mask-type:luminance" maskUnits="userSpaceOnUse" x="6" y="9" width="69" height="64">
<path d="M6.86658 9.19177H74.6969V72.4998H6.86658V9.19177Z" fill="white"/>
</mask>
<g mask="url(#mask0_9_2058)">
<path d="M10.0744 12.1576H71.4748C71.7785 12.1576 72.0158 12.3902 72.0158 12.6939V54.3535C72.0158 54.6477 71.7785 54.885 71.4748 54.885H10.0744C9.78023 54.885 9.53822 54.6477 9.53822 54.3535V12.6939C9.53822 12.3902 9.78023 12.1576 10.0744 12.1576ZM8.20952 9.4765C7.46924 9.4765 6.86658 10.0744 6.86658 10.8147V56.2374C6.86658 56.9777 7.46924 57.5756 8.20477 57.5756C8.20952 57.5756 8.20952 57.5756 8.20952 57.5756H33.9959C34.7361 57.5756 35.3388 58.1782 35.3388 58.9233V61.3624C35.3388 65.8088 31.7371 69.42 27.3001 69.42H26.669V72.1723H54.8992V69.42H54.2633C49.8264 69.42 46.2247 65.8088 46.2247 61.3624V58.9233C46.2247 58.1782 46.8273 57.5756 47.5676 57.5756H73.3587C74.0942 57.5756 74.6969 56.9777 74.6969 56.2374V10.8147C74.6969 10.0744 74.0942 9.4765 73.3587 9.4765H8.20952Z" fill="#040606"/>
</g>
<path d="M18.4025 45.0905C17.9755 45.1 17.6385 45.4464 17.648 45.8782C17.6528 46.2911 17.9897 46.6328 18.4025 46.6375H32.4726C32.8996 46.6328 33.2366 46.2816 33.2318 45.8593C33.2271 45.4369 32.8854 45.1 32.4726 45.0905H18.4025Z" fill="#040606"/>
<path d="M18.4025 41.8257C17.9755 41.8304 17.6385 42.1816 17.648 42.6087C17.6528 43.0263 17.9897 43.3632 18.4025 43.3727H32.4726C32.8996 43.3632 33.2366 43.0168 33.2318 42.5944C33.2271 42.1721 32.8854 41.8304 32.4726 41.8257H18.4025Z" fill="#040606"/>
<path d="M26.2087 18.2412V27.5848L34.2806 32.2543C36.6011 27.3571 34.5369 21.5013 29.6539 19.1713C28.5719 18.6541 27.3998 18.3361 26.2087 18.2412Z" fill="#040606"/>
<path d="M24.6665 18.2412V28.4722L33.5071 33.5925C30.4416 38.0579 24.3485 39.1873 19.8926 36.117C15.4367 33.042 14.3026 26.9347 17.3681 22.4693C19.0432 20.0302 21.7243 18.4785 24.6665 18.2412Z" fill="#040606"/>
<path d="M54.7331 30.4273L51.3733 25.0935C50.9225 24.3675 49.9734 24.1587 49.2474 24.6095C49.1098 24.6949 48.9912 24.804 48.8868 24.9322L44.5542 30.1616L43.3584 29.1745L47.7004 23.9404C48.7918 22.6307 50.7374 22.4503 52.0424 23.5418C52.2892 23.7458 52.5075 23.9926 52.6831 24.2678L56.0428 29.6016C56.4983 30.3276 57.4427 30.5459 58.1687 30.0856C58.33 29.9812 58.4677 29.8578 58.5768 29.706L63.5642 23.0293L62.8239 22.4741L65.6427 21.5297L65.5335 24.5146L64.798 23.9594L59.8106 30.6266C58.7951 31.998 56.859 32.278 55.5018 31.2577C55.1981 31.0252 54.9418 30.75 54.7425 30.4273H54.7331Z" fill="#040606"/>
<path d="M62.1074 30.0002H65.0448V44.0181H62.1074V30.0002Z" fill="#040606"/>
<path d="M55.2931 44.018V36.0411H58.24V44.018H55.2931Z" fill="#040606"/>
<path d="M48.4834 44.0181V28.2302H51.4303V44.0181H48.4834Z" fill="#040606"/>
<path d="M44.616 44.0181H41.6786V32.6814H44.616V44.0181Z" fill="#040606"/>
</svg>
