<svg width="76" height="74" viewBox="0 0 76 74" fill="none" xmlns="http://www.w3.org/2000/svg">
<path d="M38.4135 18.1574C42.8336 18.1574 46.4269 21.6518 46.4269 25.9471V29.2488H48.8283V25.9471C48.8283 20.3671 44.1575 15.8235 38.4135 15.8235C32.6695 15.8235 27.9987 20.3671 27.9987 25.9471V29.2488H30.3956V25.9471C30.3956 21.6518 33.9933 18.1574 38.4135 18.1574Z" fill="black"/>
<path d="M31.117 30.6449H27.9195C26.8903 30.6449 26.0547 31.4586 26.0547 32.4564V46.1601C26.0547 47.1579 26.8903 47.9672 27.9195 47.9672H48.9075C49.9322 47.9672 50.7679 47.1579 50.7679 46.1601V32.4564C50.7679 31.4586 49.9322 30.6449 48.9075 30.6449H31.117ZM41.4614 44.5756C41.4922 44.7768 41.4306 44.9781 41.2899 45.1323C41.1535 45.2822 40.96 45.3721 40.7489 45.3721H36.0737C35.867 45.3721 35.669 45.2822 35.5327 45.1323C35.3964 44.9781 35.3348 44.7768 35.3612 44.5756L36.0341 39.8649C35.1193 39.1626 34.5871 38.1091 34.5871 36.9614C34.5871 34.9102 36.3024 33.2443 38.4135 33.2443C40.5202 33.2443 42.2355 34.9102 42.2355 36.9614C42.2355 38.1091 41.7033 39.1626 40.7929 39.8649L41.4614 44.5756Z" fill="black"/>
<mask id="mask0_9_2074" style="mask-type:luminance" maskUnits="userSpaceOnUse" x="11" y="2" width="54" height="70">
<path d="M11.4176 2.52661H64.2262V71.0837H11.4176V2.52661Z" fill="white"/>
</mask>
<g mask="url(#mask0_9_2074)">
<path d="M63.1354 10.933C57.4002 10.2349 43.5505 8.05948 38.7917 2.95485C38.5366 2.67649 38.1891 2.52661 37.8241 2.52661C37.4546 2.52661 37.1116 2.67649 36.8521 2.95485C32.0977 8.05948 18.2435 10.2349 12.5127 10.933C11.8926 11.0058 11.4264 11.5239 11.4264 12.1363V23.155C11.4264 49.4661 31.0465 66.2317 37.0588 70.7454C37.5074 71.0837 38.1363 71.0837 38.5894 70.7454C44.6016 66.2317 64.2218 49.4661 64.2218 23.155V12.1363C64.2218 11.5239 63.7556 11.0058 63.1354 10.933ZM62.0227 24.9793C62.0227 48.3569 44.6368 63.2212 39.3063 67.2209C38.8708 67.5507 38.3475 67.7134 37.8241 67.7134C37.3007 67.7134 36.7773 67.5507 36.3419 67.2209C31.0113 63.2212 13.6211 48.3569 13.6211 24.9793V15.4338C13.6211 14.2518 14.5315 13.2455 15.7366 13.0999C19.497 12.6417 32.0625 10.8216 35.9901 6.60775C36.4607 6.10242 37.1336 5.81122 37.8241 5.81122C38.5146 5.81122 39.1831 6.10242 39.6581 6.60775C43.5813 10.8216 56.1512 12.6417 59.9116 13.0999C61.1167 13.2455 62.0227 14.2518 62.0227 15.4338V24.9793Z" fill="black"/>
</g>
</svg>
