<svg width="111" height="111" viewBox="0 0 111 111" fill="none" xmlns="http://www.w3.org/2000/svg">
<mask id="mask0_9_1934" style="mask-type:luminance" maskUnits="userSpaceOnUse" x="72" y="23" width="37" height="64">
<path d="M72.3556 23.0222H108.276V86.8536H72.3556V23.0222Z" fill="white"/>
</mask>
<g mask="url(#mask0_9_1934)">
<path d="M106.94 29.8441C106.94 27.2811 104.885 25.2062 102.341 25.2062H78.625C76.0876 25.2062 74.0257 27.2811 74.0257 29.8441V80.8412C74.0257 83.4042 76.0876 85.4854 78.625 85.4854H102.341C104.885 85.4854 106.94 83.4042 106.94 80.8412C106.94 77.2439 106.94 32.118 106.94 29.8441Z" stroke="#1D1D1B" stroke-width="2.18216" stroke-miterlimit="10" stroke-linecap="round" stroke-linejoin="round"/>
</g>
<path d="M78.7213 73.5311V32.5485C78.7213 31.6235 79.46 30.8719 80.3786 30.8719H100.587C101.506 30.8719 102.245 31.6235 102.245 32.5485V73.5311C102.245 74.4561 101.506 75.2077 100.587 75.2077H80.3786C79.46 75.2077 78.7213 74.4561 78.7213 73.5311Z" stroke="#1D1D1B" stroke-width="2.18216" stroke-miterlimit="10" stroke-linecap="round" stroke-linejoin="round"/>
<path d="M95.4227 80.5007H85.5432" stroke="#1D1D1B" stroke-width="2.18216" stroke-miterlimit="10" stroke-linecap="round" stroke-linejoin="round"/>
<mask id="mask1_9_1934" style="mask-type:luminance" maskUnits="userSpaceOnUse" x="1" y="72" width="70" height="15">
<path d="M1.76007 72.3556H70.7111V86.8537H1.76007V72.3556Z" fill="white"/>
</mask>
<g mask="url(#mask1_9_1934)">
<path d="M67.5764 74.6296H3.61008C3.33387 74.6296 3.10904 74.8608 3.10904 75.1435V80.5136C3.10904 83.2565 5.28022 85.4855 7.97171 85.4855H68.5849" stroke="#1D1D1B" stroke-width="2.18216" stroke-miterlimit="10" stroke-linecap="round" stroke-linejoin="round"/>
</g>
<path d="M59.7717 80.0575H44.1173" stroke="#1D1D1B" stroke-width="2.18216" stroke-miterlimit="10" stroke-linecap="round" stroke-linejoin="round"/>
<mask id="mask2_9_1934" style="mask-type:luminance" maskUnits="userSpaceOnUse" x="6" y="13" width="92" height="58">
<path d="M6.57779 13.3932H97.0222V70.7111H6.57779V13.3932Z" fill="white"/>
</mask>
<g mask="url(#mask2_9_1934)">
<path d="M8.23508 68.1289V16.0527C8.23508 15.3332 8.80035 14.7487 9.50053 14.7487H94.3821C95.0887 14.7487 95.654 15.3332 95.654 16.0527V18.6992" stroke="#1D1D1B" stroke-width="2.18216" stroke-miterlimit="10" stroke-linecap="round" stroke-linejoin="round"/>
</g>
<mask id="mask3_9_1934" style="mask-type:luminance" maskUnits="userSpaceOnUse" x="47" y="34" width="17" height="17">
<path d="M47.6889 34.5333H63.9471V50.9778H47.6889V34.5333Z" fill="white"/>
</mask>
<g mask="url(#mask3_9_1934)">
<path d="M62.4761 43.475C62.4761 46.7125 59.836 49.3526 56.5985 49.3526C53.361 49.3526 50.7209 46.7125 50.7209 43.475C50.7209 40.2375 53.361 37.5974 56.5985 37.5974C59.836 37.5974 62.4761 40.2375 62.4761 43.475ZM49.2498 43.475C49.2498 47.5283 52.5452 50.8236 56.5985 50.8236C60.6518 50.8236 63.9471 47.5283 63.9471 43.475C63.9471 39.4217 60.6518 36.1328 56.5985 36.1328C52.5452 36.1328 49.2498 39.4217 49.2498 43.475Z" fill="#100F0D"/>
</g>
<path d="M55.8661 39.0684V39.9356C55.0118 40.2439 54.3951 41.0533 54.3951 42.004C54.3951 43.2245 55.3844 44.2137 56.5984 44.2137C57.0031 44.2137 57.3307 44.5413 57.3307 44.946C57.3307 45.3507 57.0031 45.6783 56.5984 45.6783C56.1938 45.6783 55.8661 45.3507 55.8661 44.946H54.3951C54.3951 45.9031 55.0118 46.7125 55.8661 47.0144V47.8816H57.3307V47.0144C58.1851 46.7125 58.8017 45.9031 58.8017 44.946C58.8017 43.7255 57.8125 42.7427 56.5984 42.7427C56.1938 42.7427 55.8661 42.4087 55.8661 42.004C55.8661 41.5993 56.1938 41.2717 56.5984 41.2717C57.0031 41.2717 57.3307 41.5993 57.3307 42.004H58.8017C58.8017 41.0533 58.1851 40.2439 57.3307 39.9356V39.0684H55.8661Z" fill="#100F0D"/>
<mask id="mask4_9_1934" style="mask-type:luminance" maskUnits="userSpaceOnUse" x="41" y="50" width="22" height="16">
<path d="M41.1111 50.9778H62.4889V65.5144H41.1111V50.9778Z" fill="white"/>
</mask>
<g mask="url(#mask4_9_1934)">
<path d="M61.005 64.0434H53.6628V62.5724H55.1274V63.3111H56.5984V62.5724H58.0694V63.3111H59.534V62.5724H61.005V64.0434ZM44.8432 62.5724H46.3142V63.3111H47.7852V62.5724H49.2498V63.3111H50.7208V62.5724H52.1918V64.0434H44.8432V62.5724ZM44.1109 59.6368H45.5819V60.3691H47.0465V59.6368H48.5175V60.3691H49.9885V59.6368H51.4595V61.1078H44.1109V59.6368ZM51.4595 56.7012H52.9241V57.4335H54.3951V56.7012H55.8661V57.4335H57.3307V56.7012H58.8017V58.1658H51.4595V56.7012ZM52.9241 53.7592H54.3951V54.4915H55.8661V53.7592H57.3307V54.4915H58.8017V53.7592H60.2727V55.2302H52.9241V53.7592ZM52.9241 61.1078V59.6368H54.3951V60.3691H55.8661V59.6368H57.3307V60.3691H58.8017V59.6368H60.2727V61.1078H52.9241ZM61.7373 61.1078V58.9045C61.7373 58.4998 61.4097 58.1658 61.005 58.1658H60.2727V56.7012H61.005C61.4097 56.7012 61.7373 56.3672 61.7373 55.9625V53.0269C61.7373 52.6222 61.4097 52.2882 61.005 52.2882H52.1918C51.7871 52.2882 51.4595 52.6222 51.4595 53.0269V55.2302H50.7208C50.3161 55.2302 49.9885 55.5578 49.9885 55.9625V58.1658H43.3786C42.974 58.1658 42.6399 58.4998 42.6399 58.9045V61.8401C42.6399 62.2448 42.974 62.5724 43.3786 62.5724V64.7757C43.3786 65.1804 43.7062 65.5144 44.1109 65.5144H61.7373C62.142 65.5144 62.476 65.1804 62.476 64.7757V61.8401C62.476 61.4354 62.142 61.1078 61.7373 61.1078Z" fill="#100F0D"/>
</g>
<mask id="mask5_9_1934" style="mask-type:luminance" maskUnits="userSpaceOnUse" x="27" y="42" width="20" height="24">
<path d="M27.9556 42.7556H46.0445V65.5144H27.9556V42.7556Z" fill="white"/>
</mask>
<g mask="url(#mask5_9_1934)">
<path d="M30.1524 44.946H43.3787V56.7012H44.8432V44.946C44.8432 44.1366 44.188 43.475 43.3787 43.475H30.1524C29.3431 43.475 28.6879 44.1366 28.6879 44.946V64.0434C28.6879 64.8528 29.3431 65.5144 30.1524 65.5144H41.9077V64.0434H30.1524V44.946Z" fill="#100F0D"/>
</g>
<path d="M40.4366 49.3526H33.0945V47.8816H40.4366V49.3526ZM41.1754 46.417H32.3557C31.951 46.417 31.6234 46.7446 31.6234 47.1493V50.0849C31.6234 50.4896 31.951 50.8236 32.3557 50.8236H41.1754C41.58 50.8236 41.9076 50.4896 41.9076 50.0849V47.1493C41.9076 46.7446 41.58 46.417 41.1754 46.417Z" fill="#100F0D"/>
<path d="M40.4366 61.1078H38.9721V53.7592H40.4366V61.1078ZM33.0945 58.1658H34.559V61.1078H33.0945V58.1658ZM34.559 53.7592V56.7012H33.0945V53.7592H34.559ZM37.501 56.7012H36.03V53.7592H37.501V56.7012ZM37.501 61.1078H36.03V58.1658H37.501V61.1078ZM41.1754 52.2882H32.3557C31.951 52.2882 31.6234 52.6222 31.6234 53.0269V61.8401C31.6234 62.2448 31.951 62.5724 32.3557 62.5724H41.1754C41.58 62.5724 41.9076 62.2448 41.9076 61.8401V53.0269C41.9076 52.6222 41.58 52.2882 41.1754 52.2882Z" fill="#100F0D"/>
<mask id="mask6_9_1934" style="mask-type:luminance" maskUnits="userSpaceOnUse" x="19" y="34" width="32" height="6">
<path d="M19.8682 34.5333H50.9778V39.4667H19.8682V34.5333Z" fill="white"/>
</mask>
<g mask="url(#mask6_9_1934)">
<path d="M21.3392 36.8651C21.3392 36.4604 21.6668 36.1328 22.0715 36.1328H22.8102V37.5974H22.0715C21.6668 37.5974 21.3392 37.2698 21.3392 36.8651ZM47.2778 36.8651L45.5819 37.5396V36.1906L47.2778 36.8651ZM44.1109 37.5974H24.2748V36.1328H44.1109V37.5974ZM45.8517 39.017L49.526 37.546C49.8022 37.4368 49.9885 37.167 49.9885 36.8651C49.9885 36.5632 49.8022 36.2934 49.526 36.1842L45.8517 34.7132C45.7682 34.6811 45.6719 34.6618 45.5819 34.6618H22.0715C20.8575 34.6618 19.8682 35.651 19.8682 36.8651C19.8682 38.0792 20.8575 39.0684 22.0715 39.0684H45.5819C45.6719 39.0684 45.7682 39.0491 45.8517 39.017Z" fill="#100F0D"/>
</g>
<mask id="mask7_9_1934" style="mask-type:luminance" maskUnits="userSpaceOnUse" x="24" y="39" width="4" height="27">
<path d="M24.6667 39.4667H27.9555V65.5144H24.6667V39.4667Z" fill="white"/>
</mask>
<g mask="url(#mask7_9_1934)">
<path d="M26.4845 63.3111V40.5394H25.0135V63.3111C25.0135 64.5252 25.9963 65.5144 27.2168 65.5144V64.0434C26.8121 64.0434 26.4845 63.7158 26.4845 63.3111Z" fill="#100F0D"/>
</g>
<mask id="mask8_9_1934" style="mask-type:luminance" maskUnits="userSpaceOnUse" x="24" y="21" width="36" height="16">
<path d="M24.6667 21.442H59.2V36.1778H24.6667V21.442Z" fill="white"/>
</mask>
<g mask="url(#mask8_9_1934)">
<path d="M52.1918 28.7842V24.2363L56.5021 29.5165H52.9241C52.5194 29.5165 52.1918 29.1889 52.1918 28.7842ZM26.4845 23.6453C26.4845 23.2406 26.8121 22.9066 27.2168 22.9066H50.7208V28.7842C50.7208 29.9983 51.71 30.9875 52.9241 30.9875H57.3307V34.6618H58.8017V30.2745C58.8017 30.1075 58.7439 29.9469 58.6347 29.812L52.0248 21.7118C51.8835 21.5384 51.6715 21.442 51.4531 21.442H27.2168C25.9963 21.442 25.0135 22.4248 25.0135 23.6453V33.1908H26.4845V23.6453Z" fill="#100F0D"/>
</g>
<path d="M30.1524 25.8486V27.3132H33.0944V25.8486H30.1524Z" fill="#100F0D"/>
<path d="M34.559 25.8486V27.3132H41.9076V25.8486H34.559Z" fill="#100F0D"/>
<path d="M30.1524 30.2552H44.8432V28.7842H30.1524V30.2552Z" fill="#100F0D"/>
<mask id="mask9_9_1934" style="mask-type:luminance" maskUnits="userSpaceOnUse" x="92" y="49" width="7" height="7">
<path d="M92.0889 49.3333H98.6923V55.9111H92.0889V49.3333Z" fill="white"/>
</mask>
<g mask="url(#mask9_9_1934)">
<path d="M98.1592 52.3203C98.1592 53.4894 97.2085 54.4401 96.0394 54.4401C94.8703 54.4401 93.9196 53.4894 93.9196 52.3203C93.9196 51.1512 94.8703 50.2005 96.0394 50.2005C97.2085 50.2005 98.1592 51.1512 98.1592 52.3203ZM93.3864 52.3203C93.3864 53.7849 94.5748 54.9733 96.0394 54.9733C97.504 54.9733 98.6923 53.7849 98.6923 52.3203C98.6923 50.8557 97.504 49.6674 96.0394 49.6674C94.5748 49.6674 93.3864 50.8557 93.3864 52.3203Z" fill="#100F0D"/>
</g>
<path d="M95.776 50.7272V51.042C95.4677 51.1512 95.2429 51.4467 95.2429 51.7936C95.2429 52.2304 95.6026 52.5837 96.0394 52.5837C96.1872 52.5837 96.3028 52.7057 96.3028 52.8534C96.3028 52.9948 96.1872 53.1168 96.0394 53.1168C95.8917 53.1168 95.776 52.9948 95.776 52.8534H95.2429C95.2429 53.1939 95.4677 53.4894 95.776 53.5986V53.9133H96.3028V53.5986C96.6111 53.4894 96.8359 53.1939 96.8359 52.8534C96.8359 52.4102 96.4826 52.0569 96.0394 52.0569C95.8917 52.0569 95.776 51.9349 95.776 51.7936C95.776 51.6458 95.8917 51.5238 96.0394 51.5238C96.1872 51.5238 96.3028 51.6458 96.3028 51.7936H96.8359C96.8359 51.4467 96.6111 51.1512 96.3028 51.042V50.7272H95.776Z" fill="#100F0D"/>
<mask id="mask10_9_1934" style="mask-type:luminance" maskUnits="userSpaceOnUse" x="90" y="54" width="9" height="7">
<path d="M90.4445 54.2667H98.6667V60.2792H90.4445V54.2667Z" fill="white"/>
</mask>
<g mask="url(#mask10_9_1934)">
<path d="M97.6325 59.746H94.9795V59.2193H95.5127V59.4826H96.0394V59.2193H96.5726V59.4826H97.0993V59.2193H97.6325V59.746ZM91.7934 59.2193H92.3266V59.4826H92.8597V59.2193H93.3865V59.4826H93.9196V59.2193H94.4464V59.746H91.7934V59.2193ZM91.53 58.1594H92.0632V58.4227H92.5899V58.1594H93.1231V58.4227H93.6498V58.1594H94.183V58.6861H91.53V58.1594ZM94.183 57.093H94.7161V57.3628H95.2429V57.093H95.776V57.3628H96.3028V57.093H96.8359V57.6262H94.183V57.093ZM94.7161 56.0331H95.2429V56.3029H95.776V56.0331H96.3028V56.3029H96.8359V56.0331H97.3691V56.5663H94.7161V56.0331ZM94.7161 58.6861V58.1594H95.2429V58.4227H95.776V58.1594H96.3028V58.4227H96.8359V58.1594H97.3691V58.6861H94.7161ZM97.8958 58.6861V57.8896C97.8958 57.7482 97.7802 57.6262 97.6325 57.6262H97.3691V57.093H97.6325C97.7802 57.093 97.8958 56.9774 97.8958 56.8297V55.7698C97.8958 55.622 97.7802 55.5064 97.6325 55.5064H94.4464C94.305 55.5064 94.183 55.622 94.183 55.7698V56.5663H93.9196C93.7719 56.5663 93.6498 56.6819 93.6498 56.8297V57.6262H91.2667C91.1189 57.6262 91.0033 57.7482 91.0033 57.8896V58.9495C91.0033 59.0972 91.1189 59.2193 91.2667 59.2193V60.0158C91.2667 60.1571 91.3823 60.2792 91.53 60.2792H97.8958C98.0436 60.2792 98.1592 60.1571 98.1592 60.0158V58.9495C98.1592 58.8081 98.0436 58.6861 97.8958 58.6861Z" fill="#100F0D"/>
</g>
<mask id="mask11_9_1934" style="mask-type:luminance" maskUnits="userSpaceOnUse" x="85" y="50" width="8" height="11">
<path d="M85.5111 50.9778H92.0889V60.2792H85.5111V50.9778Z" fill="white"/>
</mask>
<g mask="url(#mask11_9_1934)">
<path d="M86.4939 52.8535H91.2667V57.0931H91.7934V52.8535C91.7934 52.558 91.5557 52.3203 91.2667 52.3203H86.4939C86.1984 52.3203 85.9608 52.558 85.9608 52.8535V59.746C85.9608 60.0415 86.1984 60.2792 86.4939 60.2792H90.7335V59.746H86.4939V52.8535Z" fill="#100F0D"/>
</g>
<path d="M90.2068 54.4401H87.5538V53.9133H90.2068V54.4401ZM90.4701 53.3802H87.284C87.1427 53.3802 87.0207 53.5022 87.0207 53.65V54.7099C87.0207 54.8576 87.1427 54.9732 87.284 54.9732H90.4701C90.6179 54.9732 90.7335 54.8576 90.7335 54.7099V53.65C90.7335 53.5022 90.6179 53.3802 90.4701 53.3802Z" fill="#100F0D"/>
<mask id="mask12_9_1934" style="mask-type:luminance" maskUnits="userSpaceOnUse" x="85" y="54" width="8" height="7">
<path d="M85.5111 54.2667H92.0889V60.2792H85.5111V54.2667Z" fill="white"/>
</mask>
<g mask="url(#mask12_9_1934)">
<path d="M90.2068 58.6861H89.6736V56.0331H90.2068V58.6861ZM87.5538 57.6262H88.0806V58.6861H87.5538V57.6262ZM88.0806 56.0331V57.093H87.5538V56.0331H88.0806ZM89.1405 57.093H88.6137V56.0331H89.1405V57.093ZM89.1405 58.6861H88.6137V57.6262H89.1405V58.6861ZM90.4701 55.5064H87.284C87.1427 55.5064 87.0207 55.622 87.0207 55.7698V58.9495C87.0207 59.0972 87.1427 59.2193 87.284 59.2193H90.4701C90.6179 59.2193 90.7335 59.0972 90.7335 58.9495V55.7698C90.7335 55.622 90.6179 55.5064 90.4701 55.5064Z" fill="#100F0D"/>
</g>
<mask id="mask13_9_1934" style="mask-type:luminance" maskUnits="userSpaceOnUse" x="82" y="47" width="12" height="4">
<path d="M82.7747 47.6889H93.7333V50.9778H82.7747V47.6889Z" fill="white"/>
</mask>
<g mask="url(#mask13_9_1934)">
<path d="M83.3078 49.9307C83.3078 49.7894 83.4299 49.6674 83.5712 49.6674H83.841V50.2005H83.5712C83.4299 50.2005 83.3078 50.0785 83.3078 49.9307ZM92.6734 49.9307L92.0632 50.1812V49.6866L92.6734 49.9307ZM91.53 50.2005H84.3677V49.6674H91.53V50.2005ZM92.1596 50.708L93.4892 50.1812C93.5856 50.1427 93.6498 50.0399 93.6498 49.9307C93.6498 49.828 93.5856 49.7252 93.4892 49.6866L92.1596 49.1599C92.1274 49.147 92.0953 49.1406 92.0632 49.1406H83.5712C83.1344 49.1406 82.7747 49.4939 82.7747 49.9307C82.7747 50.374 83.1344 50.7273 83.5712 50.7273H92.0632C92.0953 50.7273 92.1274 50.7208 92.1596 50.708Z" fill="#100F0D"/>
</g>
<mask id="mask14_9_1934" style="mask-type:luminance" maskUnits="userSpaceOnUse" x="83" y="50" width="3" height="11">
<path d="M83.8667 50.9778H85.5111V60.2792H83.8667V50.9778Z" fill="white"/>
</mask>
<g mask="url(#mask14_9_1934)">
<path d="M85.1642 59.4827V51.2604H84.6311V59.4827C84.6311 59.9195 84.9908 60.2792 85.4276 60.2792V59.746C85.2863 59.746 85.1642 59.6304 85.1642 59.4827Z" fill="#100F0D"/>
</g>
<mask id="mask15_9_1934" style="mask-type:luminance" maskUnits="userSpaceOnUse" x="83" y="44" width="15" height="6">
<path d="M83.8667 44.3615H97.0222V49.3333H83.8667V44.3615Z" fill="white"/>
</mask>
<g mask="url(#mask15_9_1934)">
<path d="M94.4464 47.0144V45.3764L96.0073 47.2842H94.7161C94.5684 47.2842 94.4464 47.1621 94.4464 47.0144ZM85.1642 45.158C85.1642 45.0102 85.2863 44.8946 85.4276 44.8946H93.9196V47.0144C93.9196 47.4576 94.2729 47.8109 94.7161 47.8109H96.3028V49.1406H96.8359V47.554C96.8359 47.4962 96.8167 47.4319 96.7781 47.387L94.3885 44.4578C94.3371 44.4 94.2601 44.3615 94.183 44.3615H85.4276C84.9908 44.3615 84.6311 44.7212 84.6311 45.158V48.6075H85.1642V45.158Z" fill="#100F0D"/>
</g>
<path d="M86.4939 45.9545V46.4877H87.5538V45.9545H86.4939Z" fill="#100F0D"/>
<path d="M88.0806 45.9545V46.4877H90.7335V45.9545H88.0806Z" fill="#100F0D"/>
<path d="M86.4939 47.5476H91.7934V47.0144H86.4939V47.5476Z" fill="#100F0D"/>
</svg>
