<svg width="90" height="90" viewBox="0 0 90 90" fill="none" xmlns="http://www.w3.org/2000/svg">
<path d="M13.9062 44.1719C13.9062 40.25 14.6927 36.4583 16.2552 32.8958L14.0989 31.9583C12.4114 35.8177 11.5521 39.9271 11.5521 44.1719C11.5521 52.1198 14.5937 59.6458 20.1146 65.3698L21.8073 63.7344C16.7135 58.4583 13.9062 51.5104 13.9062 44.1719Z" fill="black"/>
<mask id="mask0_9_2031" style="mask-type:luminance" maskUnits="userSpaceOnUse" x="48" y="8" width="30" height="30">
<path d="M48 8.93231H77.4688V37.3334H48V8.93231Z" fill="white"/>
</mask>
<g mask="url(#mask0_9_2031)">
<path d="M72.4062 30.4584L71.1927 29.2448L69.5312 30.9063L70.7448 32.1198C69 33.5469 66.8437 34.4792 64.4791 34.7188V32.4271H62.1302V34.7188C59.7656 34.4792 57.6094 33.5469 55.8646 32.1198L57.0781 30.9063L55.4166 29.2448L54.2031 30.4584C52.776 28.7188 51.8385 26.5625 51.6041 24.2031H53.8958V21.8542H51.6041C51.8385 19.4948 52.776 17.3386 54.2031 15.599L55.4166 16.8125L57.0781 15.1511L55.8646 13.9375C57.6094 12.5156 59.7656 11.5781 62.1302 11.3438V13.6302H64.4791V11.3438C66.8437 11.5781 69 12.5156 70.7448 13.9375L69.5312 15.1511L71.1927 16.8125L72.4062 15.599C73.8333 17.3386 74.7708 19.4948 75.0052 21.8542H72.7135V24.2031H75.0052C74.7708 26.5625 73.8333 28.7188 72.4062 30.4584ZM63.3021 8.93231C55.5208 8.93231 49.1927 15.2552 49.1927 23.0313C49.1927 30.8021 55.5208 37.125 63.3021 37.125C71.0885 37.125 77.4166 30.8021 77.4166 23.0313C77.4166 15.2552 71.0885 8.93231 63.3021 8.93231Z" fill="black"/>
</g>
<path d="M62.1302 22.5417L58.9427 25.724L60.6094 27.3854L64.1354 23.8594C64.3594 23.6406 64.4791 23.3386 64.4791 23.0313V15.9792H62.1302V22.5417Z" fill="black"/>
<mask id="mask1_9_2031" style="mask-type:luminance" maskUnits="userSpaceOnUse" x="6" y="10" width="28" height="21">
<path d="M6.98956 10.6667H33.3333V30.6667H6.98956V10.6667Z" fill="white"/>
</mask>
<g mask="url(#mask1_9_2031)">
<path d="M10.1354 26.6823L9.48435 20.8073C9.44789 20.474 9.55206 20.151 9.77602 19.8958C9.99998 19.6458 10.3125 19.5052 10.651 19.5052H13.9062C14.2969 19.5052 14.6614 19.3125 14.8802 18.9896C15.0989 18.6667 15.1406 18.2552 14.9948 17.8958L13.9375 15.2448C13.7864 14.875 13.8333 14.4792 14.0521 14.151C14.276 13.8229 14.6302 13.6302 15.026 13.6302H15.5937L18.776 18.9375C18.9896 19.2865 19.375 19.5052 19.7864 19.5052H23.3125V25.3802H19.7864C19.4739 25.3802 19.1771 25.5 18.9531 25.724L17.2916 27.3854C17.0677 27.6042 16.7708 27.7292 16.4583 27.7292H11.3073C10.7031 27.7292 10.2031 27.2812 10.1354 26.6823ZM25.6666 18.3333H30.3698V27.7292H25.6666V18.3333ZM18.9531 29.0469L20.2708 27.7292H23.3125V28.901C23.3125 29.5521 23.8437 30.0781 24.4896 30.0781H31.5469C32.1979 30.0781 32.7239 29.5521 32.7239 28.901V17.1562C32.7239 16.5052 32.1979 15.9792 31.5469 15.9792H24.4896C23.8437 15.9792 23.3125 16.5052 23.3125 17.1562H20.4531L17.2656 11.8542C17.0521 11.5 16.6719 11.2812 16.2552 11.2812H15.026C13.8541 11.2812 12.7604 11.8594 12.1041 12.8333C11.4479 13.8021 11.3177 15.0312 11.75 16.1146L12.1666 17.1562H10.651C9.65102 17.1562 8.69268 17.5833 8.02081 18.3281C7.35414 19.0781 7.03643 20.0729 7.14581 21.0677L7.79685 26.9427C7.99998 28.7292 9.50518 30.0781 11.3073 30.0781H16.4583C17.401 30.0781 18.2864 29.7083 18.9531 29.0469Z" fill="black"/>
</g>
<mask id="mask2_9_2031" style="mask-type:luminance" maskUnits="userSpaceOnUse" x="20" y="50" width="42" height="30">
<path d="M20 50.6667H61.3333V79.4115H20V50.6667Z" fill="white"/>
</mask>
<g mask="url(#mask2_9_2031)">
<path d="M37.4271 60.6198C36.7812 60.6198 36.25 61.1458 36.25 61.7917C36.25 64.875 38.6406 67.4063 41.6667 67.6458L39.4479 69.8594L28.276 66.4219C27.3385 65.0573 26.8437 63.4688 26.8437 61.7917C26.8437 57.2604 30.5364 53.5677 35.0781 53.5677C39.2187 53.5677 42.651 56.6406 43.2239 60.6198H37.4271ZM46.4948 60.9635C46.2708 60.7396 45.9739 60.6198 45.6614 60.6198H45.5937C45.0052 55.3385 40.5156 51.2188 35.0781 51.2188C29.2396 51.2188 24.4896 55.9635 24.4896 61.7917C24.4896 63.151 24.7552 64.4896 25.2604 65.7396C24.1823 65.8125 23.1614 66.3698 22.5417 67.2969L21.1614 69.3646C20.9635 69.6562 20.9114 70.0208 21.0156 70.3594C21.1146 70.6927 21.3646 70.9688 21.6927 71.099L41.6875 79.3229C41.8281 79.3802 41.9792 79.4115 42.1354 79.4115C42.3125 79.4115 42.4948 79.3698 42.6614 79.2865L49.4687 75.8854H60.9531V73.5365H49.1927C49.0104 73.5365 48.8281 73.5833 48.6667 73.6615L42.0885 76.9479L23.9114 69.474L24.4948 68.599C24.7812 68.1719 25.3281 67.9792 25.8229 68.1302L39.4375 72.3125C39.8542 72.4427 40.3073 72.3281 40.6146 72.0208L45.3177 67.3229C45.6562 66.9844 45.7552 66.4792 45.5729 66.0417C45.3906 65.6042 44.9635 65.3177 44.4844 65.3177H42.1354C40.5989 65.3177 39.2917 64.3333 38.8073 62.9688H45.1771L48.3594 66.1458C48.5781 66.3646 48.8802 66.4896 49.1927 66.4896H60.9531V64.1406H49.6771L46.4948 60.9635Z" fill="black"/>
</g>
<path d="M36.1719 38.125L36.9635 36.224C37.1042 35.875 37.0729 35.4792 36.8802 35.1615L36.0885 33.875L36.526 33.4375L37.8125 34.224C38.1354 34.4219 38.5313 34.4531 38.8802 34.3073L40.7812 33.5209C41.1302 33.3802 41.3854 33.0781 41.474 32.7136L41.8229 31.25H42.4427L42.7917 32.7136C42.8802 33.0781 43.1406 33.3802 43.4844 33.5209L45.3854 34.3073C45.7344 34.4531 46.1302 34.4219 46.4531 34.224L47.7396 33.4375L48.1771 33.875L47.3906 35.1615C47.1927 35.4792 47.1615 35.875 47.3073 36.224L48.0938 38.125C48.2396 38.4688 48.5417 38.7292 48.9062 38.8177L50.3646 39.1667V39.7813L48.9062 40.1302C48.5417 40.2188 48.2396 40.4792 48.0938 40.8281L47.3073 42.724C47.1615 43.0729 47.1927 43.4688 47.3906 43.7865L48.1771 45.0729L47.7396 45.5104L46.4531 44.724C46.1302 44.5261 45.7344 44.4948 45.3854 44.6406L43.4844 45.4271C43.1406 45.5677 42.8802 45.8698 42.7917 46.2396L42.4427 47.6979H41.8229L41.474 46.2396C41.3854 45.8698 41.1302 45.5677 40.7812 45.4271L38.8802 44.6406C38.5313 44.4948 38.1354 44.5261 37.8125 44.724L36.526 45.5104L36.0885 45.0729L36.8802 43.7865C37.0729 43.4688 37.1042 43.0729 36.9635 42.724L36.1719 40.8281C36.0313 40.4792 35.7292 40.2188 35.3594 40.1302L33.901 39.7813V39.1667L35.3594 38.8177C35.7292 38.7292 36.0313 38.4688 36.1719 38.125ZM34.5573 35.8802L34.2292 36.6719L32.4479 37.099C31.9219 37.224 31.5469 37.6979 31.5469 38.2396V40.7084C31.5469 41.25 31.9219 41.724 32.4479 41.8542L34.2292 42.2761L34.5573 43.0729L33.599 44.6354C33.3125 45.099 33.3854 45.6979 33.7708 46.0834L35.5156 47.8281C35.901 48.2136 36.5 48.2813 36.9635 48L38.5312 47.0365L39.3281 47.3698L39.7552 49.1459C39.8802 49.6719 40.3542 50.0469 40.8958 50.0469H43.3698C43.9115 50.0469 44.3854 49.6719 44.5156 49.1459L44.9427 47.3698L45.7344 47.0365L47.3021 48C47.7656 48.2813 48.3646 48.2136 48.75 47.8281L50.5 46.0834C50.8802 45.6979 50.9531 45.099 50.6719 44.6354L49.7083 43.0729L50.0365 42.2761L51.8177 41.8542C52.3438 41.724 52.7188 41.25 52.7188 40.7084V38.2396C52.7188 37.6979 52.3438 37.224 51.8177 37.099L50.0365 36.6719L49.7083 35.8802L50.6719 34.3125C50.9531 33.849 50.8854 33.25 50.5 32.8646L48.75 31.1198C48.3646 30.7344 47.7656 30.6667 47.3021 30.9479L45.7344 31.9115L44.9427 31.5834L44.5156 29.8021C44.3854 29.2761 43.9115 28.9011 43.3698 28.9011H40.8958C40.3542 28.9011 39.8802 29.2761 39.7552 29.8021L39.3281 31.5834L38.5312 31.9115L36.9635 30.9479C36.5 30.6667 35.901 30.7344 35.5156 31.1198L33.7708 32.8646C33.3854 33.25 33.3125 33.849 33.599 34.3125L34.5573 35.8802Z" fill="black"/>
<path d="M42.1354 38.3021C42.7813 38.3021 43.3073 38.8281 43.3073 39.474C43.3073 40.1198 42.7813 40.6511 42.1354 40.6511C41.4844 40.6511 40.9584 40.1198 40.9584 39.474C40.9584 38.8281 41.4844 38.3021 42.1354 38.3021ZM42.1354 43C44.0781 43 45.6615 41.4167 45.6615 39.474C45.6615 37.5313 44.0781 35.9479 42.1354 35.9479C40.1875 35.9479 38.6042 37.5313 38.6042 39.474C38.6042 41.4167 40.1875 43 42.1354 43Z" fill="black"/>
<path d="M69.7969 38.5312C70.1719 40.375 70.3594 42.276 70.3594 44.1719C70.3594 51.3073 67.6875 58.1146 62.8333 63.3437L64.5573 64.9427C69.8177 59.276 72.7135 51.901 72.7135 44.1719C72.7135 42.1198 72.5104 40.0625 72.1041 38.0677L69.7969 38.5312Z" fill="black"/>
<path d="M42.1354 15.9791C44.0365 15.9791 45.9323 16.1719 47.7812 16.5469L48.25 14.2448C46.25 13.8385 44.1927 13.6302 42.1354 13.6302C39.651 13.6302 37.1823 13.9323 34.7969 14.5156L35.3594 16.7969C37.5625 16.2552 39.8438 15.9791 42.1354 15.9791Z" fill="black"/>
<path d="M21.1406 31.1719C18.7136 35.0677 17.4323 39.5625 17.4323 44.1719C17.4323 48.7813 18.7136 53.276 21.1406 57.1719L23.1354 55.9323C20.9427 52.4115 19.7865 48.3438 19.7865 44.1719C19.7865 40 20.9427 35.9323 23.1354 32.4115L21.1406 31.1719Z" fill="black"/>
<path d="M59.4219 61.7864C64.2031 57.1094 66.8334 50.8541 66.8334 44.1719C66.8334 42.5104 66.6667 40.8541 66.3386 39.2396L64.0365 39.7083C64.3281 41.1666 64.4792 42.6719 64.4792 44.1719C64.4792 50.2187 62.099 55.8802 57.7761 60.1094L59.4219 61.7864Z" fill="black"/>
<path d="M42.1354 21.8541C43.6406 21.8541 45.1406 22.0052 46.6041 22.3021L47.0729 20C45.4583 19.6719 43.7969 19.5052 42.1354 19.5052C39.6041 19.5052 37.1146 19.8854 34.7239 20.6354L35.4271 22.875C37.5885 22.1979 39.8437 21.8541 42.1354 21.8541Z" fill="black"/>
<path d="M29.1979 61.7917C29.1979 63.224 29.7188 64.6042 30.6667 65.6771L32.4271 64.125C31.8594 63.4792 31.5469 62.6511 31.5469 61.7917C31.5469 59.849 33.1302 58.2709 35.0781 58.2709C35.6979 58.2709 36.3073 58.4323 36.8386 58.7396L38.0156 56.7031C37.125 56.1927 36.1094 55.9167 35.0781 55.9167C31.8334 55.9167 29.1979 58.5521 29.1979 61.7917Z" fill="black"/>
</svg>
