<svg xmlns="http://www.w3.org/2000/svg" xmlns:xlink="http://www.w3.org/1999/xlink" width="40" zoomAndPan="magnify" viewBox="0 0 30 30.000001" height="40" preserveAspectRatio="xMidYMid meet" version="1.0"><defs><clipPath id="cac506ad63"><path d="M 0.917969 0.433594 L 29.226562 0.433594 L 29.226562 28.742188 L 0.917969 28.742188 Z M 0.917969 0.433594 " clip-rule="nonzero"/></clipPath></defs><path fill="#551945" d="M 15.769531 5.9375 C 11.464844 5.9375 7.964844 9.4375 7.964844 13.742188 C 7.964844 15.15625 8.34375 16.519531 9.054688 17.71875 L 8 21.523438 L 11.996094 20.578125 C 13.148438 21.214844 14.441406 21.546875 15.769531 21.546875 C 20.074219 21.546875 23.574219 18.050781 23.574219 13.742188 C 23.574219 9.4375 20.074219 5.9375 15.769531 5.9375 Z M 15.769531 20.269531 C 14.582031 20.269531 13.433594 19.949219 12.425781 19.355469 L 12.199219 19.222656 L 9.816406 19.78125 L 10.445312 17.515625 L 10.289062 17.277344 C 9.613281 16.234375 9.257812 15 9.257812 13.742188 C 9.257812 10.148438 12.1875 7.21875 15.78125 7.21875 C 19.375 7.21875 22.304688 10.148438 22.304688 13.742188 C 22.292969 17.351562 19.363281 20.269531 15.769531 20.269531 Z M 15.769531 20.269531 " fill-opacity="1" fill-rule="nonzero"/><path fill="#551945" d="M 19.484375 16.554688 C 19.421875 16.875 18.734375 17.277344 18.296875 17.398438 C 17.207031 17.683594 15.675781 16.851562 14.15625 15.535156 C 12.625 14.207031 11.59375 12.808594 11.738281 11.691406 C 11.785156 11.253906 12.105469 10.503906 12.414062 10.410156 C 12.710938 10.316406 12.921875 10.398438 13.230469 10.503906 C 13.386719 10.671875 13.574219 10.886719 13.789062 11.121094 C 14.074219 11.441406 14.261719 11.738281 14.394531 11.941406 C 14.488281 12.105469 14.453125 12.320312 14.3125 12.449219 L 13.789062 12.914062 C 13.695312 12.996094 13.660156 13.140625 13.71875 13.246094 C 13.882812 13.589844 14.261719 14.300781 14.820312 14.789062 C 15.378906 15.273438 16.136719 15.546875 16.492188 15.664062 C 16.613281 15.699219 16.742188 15.652344 16.8125 15.546875 L 17.207031 14.964844 C 17.3125 14.8125 17.523438 14.742188 17.703125 14.8125 C 17.917969 14.90625 18.238281 15.046875 18.59375 15.285156 C 18.867188 15.464844 19.089844 15.628906 19.28125 15.761719 C 19.421875 16.046875 19.542969 16.246094 19.484375 16.554688 Z M 19.484375 16.554688 " fill-opacity="1" fill-rule="nonzero"/><g clip-path="url(#cac506ad63)"><path fill="#551945" d="M 15 28.59375 C 7.242188 28.59375 0.917969 22.285156 0.917969 14.515625 C 0.917969 6.757812 7.242188 0.433594 15 0.433594 C 22.757812 0.433594 29.078125 6.757812 29.078125 14.515625 C 29.078125 22.285156 22.769531 28.59375 15 28.59375 Z M 15 1.207031 C 7.65625 1.207031 1.691406 7.171875 1.691406 14.515625 C 1.691406 21.855469 7.65625 27.824219 15 27.824219 C 22.339844 27.824219 28.308594 21.855469 28.308594 14.515625 C 28.308594 7.171875 22.339844 1.207031 15 1.207031 Z M 15 1.207031 " fill-opacity="1" fill-rule="nonzero"/></g></svg>