<svg width="25" height="23" viewBox="0 0 25 23" fill="none" xmlns="http://www.w3.org/2000/svg">
<path d="M20.3135 9.14838C20.3135 11.1672 19.5859 13.032 18.3603 14.545L24.5422 20.1176C25.1526 20.6674 25.1526 21.5603 24.5422 22.11C23.9318 22.6598 22.9406 22.6598 22.3302 22.11L16.1482 16.5374C14.4685 17.6458 12.3981 18.2968 10.1567 18.2968C4.54612 18.2968 0 14.202 0 9.14838C0 4.09478 4.54612 0 10.1567 0C15.7674 0 20.3135 4.09478 20.3135 9.14838ZM10.1567 15.4819C11.0801 15.4819 11.9945 15.318 12.8476 14.9998C13.7007 14.6815 14.4759 14.215 15.1288 13.6268C15.7818 13.0387 16.2997 12.3405 16.6531 11.5721C17.0065 10.8037 17.1883 9.9801 17.1883 9.14838C17.1883 8.31665 17.0065 7.49307 16.6531 6.72465C16.2997 5.95624 15.7818 5.25804 15.1288 4.66992C14.4759 4.0818 13.7007 3.61528 12.8476 3.29699C11.9945 2.97871 11.0801 2.81488 10.1567 2.81488C9.23334 2.81488 8.31898 2.97871 7.46587 3.29699C6.61276 3.61528 5.8376 4.0818 5.18466 4.66992C4.53171 5.25804 4.01377 5.95624 3.6604 6.72465C3.30703 7.49307 3.12515 8.31665 3.12515 9.14838C3.12515 9.9801 3.30703 10.8037 3.6604 11.5721C4.01377 12.3405 4.53171 13.0387 5.18466 13.6268C5.8376 14.215 6.61276 14.6815 7.46587 14.9998C8.31898 15.318 9.23334 15.4819 10.1567 15.4819Z" fill="#9C5E8C"/>
</svg>
